<?xml version="1.0" encoding="iso-8859-1"?>
<!-- Generator: Adobe Illustrator 16.0.0, SVG Export Plug-In . SVG Version: 6.00 Build 0)  -->
<!DOCTYPE svg PUBLIC "-//W3C//DTD SVG 1.1//EN" "http://www.w3.org/Graphics/SVG/1.1/DTD/svg11.dtd">
<svg version="1.1" id="Capa_1" xmlns="http://www.w3.org/2000/svg" xmlns:xlink="http://www.w3.org/1999/xlink" x="0px" y="0px"
	 width="155.883px" height="155.883px" viewBox="0 0 155.883 155.883" style="enable-background:new 0 0 155.883 155.883;"
	 xml:space="preserve">
<g>
	<g>
		<path d="M77.941,40.53c-20.664,0-37.412,16.742-37.412,37.412c0,20.661,16.748,37.412,37.412,37.412
			c20.667,0,37.412-16.751,37.412-37.412C115.354,57.271,98.608,40.53,77.941,40.53z M67.964,95.399V60.484L97.89,77.941
			L67.964,95.399z"/>
		<path d="M43.784,43.784l-6.616-6.609C26.731,47.621,20.265,62.043,20.265,77.941c0,15.899,6.466,30.317,16.91,40.767l6.616-6.612
			c-8.753-8.75-14.172-20.825-14.172-34.154C29.618,64.615,35.037,52.538,43.784,43.784z"/>
		<path d="M118.708,37.175l-6.618,6.609c8.75,8.747,14.169,20.831,14.169,34.157c0,13.329-5.419,25.404-14.169,34.154l6.618,6.612
			c10.443-10.449,16.91-24.867,16.91-40.767C135.618,62.043,129.151,47.621,118.708,37.175z"/>
		<path d="M29.469,29.469l-6.616-6.616C8.735,36.971,0,56.456,0,77.941c0,21.489,8.735,40.974,22.853,55.089l6.616-6.613
			C17.041,114.001,9.353,96.854,9.353,77.941S17.041,41.882,29.469,29.469z"/>
		<path d="M133.03,22.853l-6.619,6.616c12.434,12.413,20.118,29.56,20.118,48.473s-7.685,36.06-20.118,48.476l6.619,6.613
			c14.12-14.115,22.853-33.6,22.853-55.089C155.883,56.456,147.15,36.971,133.03,22.853z"/>
	</g>
</g>
<g>
</g>
<g>
</g>
<g>
</g>
<g>
</g>
<g>
</g>
<g>
</g>
<g>
</g>
<g>
</g>
<g>
</g>
<g>
</g>
<g>
</g>
<g>
</g>
<g>
</g>
<g>
</g>
<g>
</g>
</svg>
